<svg height="512pt" viewBox="0 -24 512.001 512" width="512pt" xmlns="http://www.w3.org/2000/svg"><path d="m180.90625 305.460938h150.1875v150.183593h-150.1875zm0 0" fill="#c6c5ca"/><path d="m180.90625 391.691406c64.4375-12.652344 122.492188-12.890625 150.1875-12.007812v-74.226563h-150.1875zm0 0" fill="#acabb1"/><path d="m463.246094 350.09375h-414.492188c-22.785156 0-41.253906-18.472656-41.253906-41.257812v-260.082032c0-22.785156 18.46875-41.253906 41.253906-41.253906h414.492188c22.785156 0 41.253906 18.46875 41.253906 41.253906v260.082032c0 22.785156-18.46875 41.257812-41.253906 41.257812zm0 0" fill="#eaeaea"/><path d="m48.753906 7.5c-22.78125 0-41.253906 18.46875-41.253906 41.253906v260.082032c0 22.785156 18.472656 41.257812 41.253906 41.257812h92.308594c-12.125-20.441406-12.128906-51.445312-12.128906-51.445312v-161.449219c0-28.71875 14.460937-55.507813 38.476562-71.25 33.554688-21.988281 70.578125-46.921875 87.636719-58.449219zm0 0" fill="#d8d7da"/><path d="m463.246094 7.5h-414.492188c-22.78125 0-41.253906 18.46875-41.253906 41.253906v220.515625h497v-220.515625c0-22.785156-18.46875-41.253906-41.253906-41.253906zm0 0" fill="#898890"/><path d="m350.09375 455.644531h-188.1875c-12.9375 0-23.519531-10.585937-23.519531-23.523437s10.582031-23.523438 23.519531-23.523438h188.1875c12.9375 0 23.523438 10.585938 23.523438 23.523438-.003907 12.9375-10.585938 23.523437-23.523438 23.523437zm0 0" fill="#eaeaea"/><path d="m204.957031 432.121094c0-12.9375 10.585938-23.523438 23.523438-23.523438h-66.574219c-12.9375 0-23.519531 10.585938-23.519531 23.523438s10.582031 23.523437 23.519531 23.523437h66.574219c-12.9375 0-23.523438-10.585937-23.523438-23.523437zm0 0" fill="#d8d7da"/><path d="m167.410156 65.949219c33.554688-21.988281 70.578125-46.921875 87.636719-58.449219h-206.292969c-22.78125 0-41.253906 18.46875-41.253906 41.253906v220.515625h121.433594v-132.070312c0-28.71875 14.460937-55.507813 38.476562-71.25zm0 0" fill="#74747c"/><path d="m256 207.039062c-15.519531 0-28.101562-12.582031-28.101562-28.101562v-20.429688c0-4.234374 3.4375-7.671874 7.671874-7.671874h40.859376c4.238281 0 7.671874 3.4375 7.671874 7.671874v20.429688c-.003906 15.519531-12.582031 28.101562-28.101562 28.101562zm0 0" fill="#57565c"/><path d="m191.976562 178.9375c0-13.179688-13.417968-23.867188-29.972656-23.867188-16.554687 0-29.972656 10.6875-29.972656 23.867188 0 13.183594 13.417969 23.871094 29.972656 23.871094 16.554688 0 29.972656-10.6875 29.972656-23.871094zm0 0" fill="#ffa6bb"/><path d="m379.96875 178.9375c0-13.179688-13.417969-23.867188-29.972656-23.867188-16.554688 0-29.972656 10.6875-29.972656 23.867188 0 13.183594 13.417968 23.871094 29.972656 23.871094 16.554687 0 29.972656-10.6875 29.972656-23.871094zm0 0" fill="#ffa6bb"/><path d="m336.65625 138.386719c-4.140625 0-7.5 3.355469-7.5 7.5v12.449219c0 4.140624 3.359375 7.5 7.5 7.5 4.144531 0 7.5-3.359376 7.5-7.5v-12.449219c0-4.144531-3.355469-7.5-7.5-7.5zm0 0"/><path d="m175.34375 138.386719c-4.144531 0-7.5 3.355469-7.5 7.5v12.449219c0 4.140624 3.355469 7.5 7.5 7.5 4.140625 0 7.5-3.359376 7.5-7.5v-12.449219c0-4.144531-3.359375-7.5-7.5-7.5zm0 0"/><path d="m463.246094 0h-414.492188c-26.882812 0-48.753906 21.871094-48.753906 48.753906v260.085938c0 26.882812 21.871094 48.753906 48.753906 48.753906h124.652344v19.890625c0 4.140625 3.359375 7.5 7.5 7.5 4.144531 0 7.5-3.359375 7.5-7.5v-19.890625h135.1875v43.503906h-161.6875c-17.105469 0-31.019531 13.917969-31.019531 31.023438 0 17.105468 13.914062 31.023437 31.019531 31.023437h188.1875c17.105469 0 31.023438-13.917969 31.023438-31.023437 0-17.105469-13.917969-31.023438-31.023438-31.023438h-11.5v-43.503906h124.652344c26.882812 0 48.753906-21.875 48.753906-48.757812v-260.082032c0-26.882812-21.871094-48.753906-48.753906-48.753906zm-97.132813 432.121094c0 8.835937-7.1875 16.023437-16.019531 16.023437h-188.1875c-8.832031 0-16.019531-7.1875-16.019531-16.023437 0-8.835938 7.1875-16.023438 16.019531-16.023438h188.1875c8.832031 0 16.019531 7.1875 16.019531 16.023438zm97.132813-89.527344h-414.492188c-18.609375 0-33.753906-15.144531-33.753906-33.757812v-32.066407h412.054688c4.140624 0 7.5-3.359375 7.5-7.5s-3.359376-7.5-7.5-7.5h-412.054688v-213.015625c0-18.609375 15.144531-33.753906 33.753906-33.753906h414.492188c18.609375 0 33.753906 15.140625 33.753906 33.753906v213.015625h-34.417969c-4.144531 0-7.5 3.359375-7.5 7.5 0 4.144531 3.355469 7.5 7.5 7.5h34.417969v32.070313c0 18.609375-15.144531 33.753906-33.753906 33.753906zm0 0"/><path d="m276.429688 143.335938h-40.859376c-8.367187 0-15.171874 6.808593-15.171874 15.171874v20.429688c0 19.632812 15.972656 35.601562 35.601562 35.601562s35.601562-15.96875 35.601562-35.601562v-20.429688c0-8.363281-6.804687-15.171874-15.171874-15.171874zm.171874 35.601562c0 11.359375-9.242187 20.601562-20.601562 20.601562s-20.601562-9.242187-20.601562-20.597656v-20.433594c0-.09375 41.203124-.09375 41.203124 0zm0 0"/></svg>